<svg width="36" height="38" viewBox="0 0 36 38" fill="none" xmlns="http://www.w3.org/2000/svg">
<path opacity="0.3" d="M21.952 12.92C21.76 11.12 20.248 9.72803 18.4 9.72803C16.552 9.72803 15.04 11.12 14.848 12.92C15.952 12.416 17.152 12.128 18.4 12.128C19.648 12.128 20.848 12.416 21.952 12.92Z" fill="#E0A408"/>
<path opacity="0.3" d="M18.4 14.528C14.44 14.528 11.2 18.296 11.2 22.928C11.2 27.56 14.44 31.328 18.4 31.328C22.36 31.328 25.6 27.56 25.6 22.928C25.6 18.296 22.36 14.528 18.4 14.528ZM19.6 27.728H17.2V18.128H19.6V27.728Z" fill="#E0A408"/>
<path d="M32.8 24.128V21.728H27.904C27.808 20.816 27.64 19.952 27.376 19.136L31.48 16.76L30.28 14.672L26.392 16.928C25.816 15.968 25.096 15.152 24.304 14.456C24.472 13.52 24.616 11.6 23.152 9.68L26.128 6.704L24.424 5L21.328 8.096C20.344 7.544 18.088 6.632 15.496 8.096L12.376 5.024L10.672 6.704L13.648 9.68C12.184 11.6 12.328 13.52 12.52 14.456C11.704 15.152 10.984 15.968 10.408 16.928L6.52 14.696L5.32 16.784L9.424 19.16C9.16 19.976 8.992 20.84 8.896 21.752H4V24.152H8.896C8.992 25.064 9.16 25.928 9.424 26.744L5.32 29.12L6.52 31.208L10.408 28.928C12.136 31.832 15.064 33.728 18.4 33.728C21.736 33.728 24.664 31.808 26.392 28.928L30.28 31.184L31.48 29.096L27.376 26.72C27.64 25.904 27.808 25.04 27.904 24.128H32.8ZM18.4 9.728C20.248 9.728 21.76 11.12 21.952 12.92C20.848 12.416 19.648 12.128 18.4 12.128C17.152 12.128 15.952 12.416 14.848 12.92C15.04 11.12 16.552 9.728 18.4 9.728ZM18.4 31.328C14.44 31.328 11.2 27.56 11.2 22.928C11.2 18.296 14.44 14.528 18.4 14.528C22.36 14.528 25.6 18.296 25.6 22.928C25.6 27.56 22.36 31.328 18.4 31.328Z" fill="#E0A408"/>
<path d="M19.6 18.128H17.2V27.728H19.6V18.128Z" fill="#E0A408"/>
</svg>
