<svg width="248" height="66" viewBox="0 0 248 66" fill="none" xmlns="http://www.w3.org/2000/svg">
<path opacity="0.3" d="M42.552 26.592C42.36 24.792 40.848 23.4 39 23.4C37.152 23.4 35.64 24.792 35.448 26.592C36.552 26.088 37.752 25.8 39 25.8C40.248 25.8 41.448 26.088 42.552 26.592Z" fill="#E0A408"/>
<path opacity="0.3" d="M39 28.2C35.04 28.2 31.8 31.968 31.8 36.6C31.8 41.232 35.04 45 39 45C42.96 45 46.2 41.232 46.2 36.6C46.2 31.968 42.96 28.2 39 28.2ZM40.2 41.4H37.8V31.8H40.2V41.4Z" fill="#E0A408"/>
<path d="M53.4 37.8V35.4H48.504C48.408 34.488 48.24 33.624 47.976 32.808L52.08 30.432L50.88 28.344L46.992 30.6C46.416 29.64 45.696 28.824 44.904 28.128C45.072 27.192 45.216 25.272 43.752 23.352L46.728 20.376L45.024 18.672L41.928 21.768C40.944 21.216 38.688 20.304 36.096 21.768L32.976 18.696L31.272 20.376L34.248 23.352C32.784 25.272 32.928 27.192 33.12 28.128C32.304 28.824 31.584 29.64 31.008 30.6L27.12 28.368L25.92 30.456L30.024 32.832C29.76 33.648 29.592 34.512 29.496 35.424H24.6V37.824H29.496C29.592 38.736 29.76 39.6 30.024 40.416L25.92 42.792L27.12 44.88L31.008 42.6C32.736 45.504 35.664 47.4 39 47.4C42.336 47.4 45.264 45.48 46.992 42.6L50.88 44.856L52.08 42.768L47.976 40.392C48.24 39.576 48.408 38.712 48.504 37.8H53.4ZM39 23.4C40.848 23.4 42.36 24.792 42.552 26.592C41.448 26.088 40.248 25.8 39 25.8C37.752 25.8 36.552 26.088 35.448 26.592C35.64 24.792 37.152 23.4 39 23.4ZM39 45C35.04 45 31.8 41.232 31.8 36.6C31.8 31.968 35.04 28.2 39 28.2C42.96 28.2 46.2 31.968 46.2 36.6C46.2 41.232 42.96 45 39 45Z" fill="#E0A408"/>
<path d="M40.2 31.8H37.8V41.4H40.2V31.8Z" fill="#E0A408"/>
<path d="M65.4297 25.6875H69.543C72.2383 25.6875 73.9766 26.4648 74.7578 28.0195C75.0469 28.6055 75.1914 29.1875 75.1914 29.7656C75.1914 30.3438 75.1289 30.8047 75.0039 31.1484C74.8867 31.4844 74.7266 31.793 74.5234 32.0742C74.1406 32.6055 73.6328 33.0586 73 33.4336V33.4805C74.1719 33.8164 75.0352 34.4062 75.5898 35.25C76.0117 35.8906 76.2227 36.6016 76.2227 37.3828C76.2227 38.1641 76.0664 38.8398 75.7539 39.4102C75.4492 39.9805 75.0234 40.457 74.4766 40.8398C73.3594 41.6133 71.8672 42 70 42H65.4297V25.6875ZM69.9883 32.8008C71.2461 32.8008 72.0938 32.3047 72.5312 31.3125C72.6797 30.9609 72.7539 30.5703 72.7539 30.1406C72.7539 29.7031 72.6992 29.3281 72.5898 29.0156C72.4805 28.6953 72.3047 28.4219 72.0625 28.1953C71.5469 27.7109 70.7695 27.4688 69.7305 27.4688H67.7734V32.8008H69.9883ZM73.7852 37.4297C73.7852 35.5312 72.6445 34.582 70.3633 34.582H67.7734V40.2188H70C71.7188 40.2188 72.8789 39.6992 73.4805 38.6602C73.6836 38.3086 73.7852 37.8984 73.7852 37.4297ZM85.457 40.1719C88.0195 40.1719 89.3008 38.5977 89.3008 35.4492V25.6875H91.6445V35.4492C91.6445 37.7539 91.0625 39.4805 89.8984 40.6289C88.8438 41.668 87.3633 42.1875 85.457 42.1875C82.5117 42.1875 80.6016 40.9727 79.7266 38.543C79.4141 37.6914 79.2578 36.6602 79.2578 35.4492V25.6875H81.6016V35.4492C81.6016 38.5977 82.8867 40.1719 85.457 40.1719ZM107.5 41.8359C106.602 42.0703 105.414 42.1875 103.938 42.1875C102.469 42.1875 101.207 42.0039 100.152 41.6367C99.1055 41.2695 98.2031 40.7266 97.4453 40.0078C95.8203 38.4922 95.0078 36.3828 95.0078 33.6797C95.0078 31.9141 95.4297 30.3906 96.2734 29.1094C97.4141 27.3672 99.168 26.2578 101.535 25.7812C102.262 25.6406 103.152 25.5703 104.207 25.5703C105.262 25.5703 106.172 25.6211 106.938 25.7227V27.9727C106.266 27.8008 105.305 27.7148 104.055 27.7148C102.812 27.7148 101.793 27.8555 100.996 28.1367C100.199 28.418 99.5391 28.8203 99.0156 29.3438C97.9688 30.3672 97.4453 31.8125 97.4453 33.6797C97.4453 35.5781 97.9609 37.0977 98.9922 38.2383C100.117 39.4805 101.723 40.1016 103.809 40.1016C104.293 40.1016 104.742 40.082 105.156 40.043V34.0312H107.5V41.8359ZM123.262 27.75H118.352V25.6875H130.516V27.75H125.605V42H123.262V27.75ZM133.469 25.6875H138.098C141.184 25.6875 143.172 26.6016 144.062 28.4297C144.383 29.1016 144.543 29.8594 144.543 30.7031C144.543 31.5391 144.43 32.2461 144.203 32.8242C143.984 33.4023 143.676 33.8984 143.277 34.3125C142.512 35.1094 141.457 35.6328 140.113 35.8828C140.668 37.5938 141.609 38.7734 142.938 39.4219C143.375 39.6406 143.742 39.7578 144.039 39.7734C144.539 39.7891 144.891 39.7734 145.094 39.7266V42H144.566C142.809 42 141.312 41.375 140.078 40.125C138.992 39.0391 138.262 37.6719 137.887 36.0234H135.812V42H133.469V25.6875ZM137.945 34.1484C139.359 34.1484 140.406 33.875 141.086 33.3281C141.766 32.7812 142.105 31.9297 142.105 30.7734C142.105 29.2344 141.391 28.2422 139.961 27.7969C139.461 27.6406 138.855 27.5625 138.145 27.5625H135.812V34.1484H137.945ZM152.688 25.6875H154.293L161.172 42H158.734L157.082 37.8984H149.84L148.199 42H145.809L152.688 25.6875ZM156.332 36.0234L153.473 28.875L150.602 36.0234H156.332ZM174.391 41.9062C173.617 42.0469 172.574 42.1172 171.262 42.1172C169.957 42.1172 168.777 41.9375 167.723 41.5781C166.676 41.2188 165.773 40.6875 165.016 39.9844C163.391 38.4766 162.578 36.375 162.578 33.6797C162.578 31.9219 162.996 30.3984 163.832 29.1094C164.965 27.3672 166.703 26.2578 169.047 25.7812C169.766 25.6406 170.621 25.5703 171.613 25.5703C172.613 25.5703 173.414 25.625 174.016 25.7344V27.9727C173.469 27.8008 172.621 27.7148 171.473 27.7148C170.332 27.7148 169.363 27.8555 168.566 28.1367C167.77 28.418 167.109 28.8203 166.586 29.3438C165.539 30.3672 165.016 31.8125 165.016 33.6797C165.016 35.5625 165.531 37.0547 166.562 38.1562C167.68 39.3438 169.285 39.9375 171.379 39.9375C172.605 39.9375 173.609 39.8438 174.391 39.6562V41.9062ZM177.32 25.6875H179.652V33.3281L185.934 25.6875H188.863L182.172 33.5391L189.379 42H186.473L179.652 33.8672V42H177.32V25.6875ZM191.336 25.6875H201.871V27.7266H193.68V32.5312H199.879V34.5H193.68V39.9375H201.871V42H191.336V25.6875ZM205.539 25.6875H210.168C213.254 25.6875 215.242 26.6016 216.133 28.4297C216.453 29.1016 216.613 29.8594 216.613 30.7031C216.613 31.5391 216.5 32.2461 216.273 32.8242C216.055 33.4023 215.746 33.8984 215.348 34.3125C214.582 35.1094 213.527 35.6328 212.184 35.8828C212.738 37.5938 213.68 38.7734 215.008 39.4219C215.445 39.6406 215.812 39.7578 216.109 39.7734C216.609 39.7891 216.961 39.7734 217.164 39.7266V42H216.637C214.879 42 213.383 41.375 212.148 40.125C211.062 39.0391 210.332 37.6719 209.957 36.0234H207.883V42H205.539V25.6875ZM210.016 34.1484C211.43 34.1484 212.477 33.875 213.156 33.3281C213.836 32.7812 214.176 31.9297 214.176 30.7734C214.176 29.2344 213.461 28.2422 212.031 27.7969C211.531 27.6406 210.926 27.5625 210.215 27.5625H207.883V34.1484H210.016Z" fill="#E0A408" fill-opacity="0.7"/>
</svg>
