<svg width="200" height="33" viewBox="0 0 200 33" fill="none" xmlns="http://www.w3.org/2000/svg">
<path opacity="0.3" d="M17.952 4.92003C17.76 3.12003 16.248 1.72803 14.4 1.72803C12.552 1.72803 11.04 3.12003 10.848 4.92003C11.952 4.41603 13.152 4.12803 14.4 4.12803C15.648 4.12803 16.848 4.41603 17.952 4.92003Z" fill="#E0A408"/>
<path opacity="0.3" d="M14.4 6.52795C10.44 6.52795 7.20001 10.296 7.20001 14.928C7.20001 19.56 10.44 23.328 14.4 23.328C18.36 23.328 21.6 19.56 21.6 14.928C21.6 10.296 18.36 6.52795 14.4 6.52795ZM15.6 19.728H13.2V10.128H15.6V19.728Z" fill="#E0A408"/>
<path d="M28.8 19.128V16.728H23.904C23.808 15.816 23.64 14.952 23.376 14.136L27.48 11.76L26.28 9.672L22.392 11.928C21.816 10.968 21.096 10.152 20.304 9.456C20.472 8.52 20.616 6.6 19.152 4.68L22.128 1.704L20.424 0L17.328 3.096C16.344 2.544 14.088 1.632 11.496 3.096L8.376 0.0239983L6.672 1.704L9.648 4.68C8.184 6.6 8.328 8.52 8.52 9.456C7.704 10.152 6.984 10.968 6.408 11.928L2.52 9.696L1.32 11.784L5.424 14.16C5.16 14.976 4.992 15.84 4.896 16.752H0V19.152H4.896C4.992 20.064 5.16 20.928 5.424 21.744L1.32 24.12L2.52 26.208L6.408 23.928C8.136 26.832 11.064 28.728 14.4 28.728C17.736 28.728 20.664 26.808 22.392 23.928L26.28 26.184L27.48 24.096L23.376 21.72C23.64 20.904 23.808 20.04 23.904 19.128H28.8ZM14.4 4.728C16.248 4.728 17.76 6.12 17.952 7.92C16.848 7.416 15.648 7.128 14.4 7.128C13.152 7.128 11.952 7.416 10.848 7.92C11.04 6.12 12.552 4.728 14.4 4.728ZM14.4 26.328C10.44 26.328 7.2 22.56 7.2 17.928C7.2 13.296 10.44 9.528 14.4 9.528C18.36 9.528 21.6 13.296 21.6 17.928C21.6 22.56 18.36 26.328 14.4 26.328Z" fill="#E0A408"/>
<path d="M15.6 10.1281H13.2V19.7281H15.6V10.1281Z" fill="#E0A408"/>
<path d="M38.98 23V7.82H45.954C48.198 7.82 49.32 8.942 49.32 11.186V12.704C49.32 13.2027 49.1733 13.628 48.88 13.98L48.11 14.904L49.034 15.674C49.518 16.07 49.76 16.6567 49.76 17.434V19.634C49.76 21.878 48.638 23 46.394 23H38.98ZM40.828 21.328H46.416C47.4133 21.328 47.912 20.8293 47.912 19.832V17.368C47.912 16.3707 47.4133 15.872 46.416 15.872H40.828V21.328ZM40.828 14.2H45.976C46.9733 14.2 47.472 13.7013 47.472 12.704V10.988C47.472 9.99067 46.9733 9.492 45.976 9.492H40.828V14.2ZM53.0062 19.634V7.82H54.8542V19.832C54.8542 20.8293 55.3529 21.328 56.3502 21.328H61.1022C62.0995 21.328 62.5982 20.8293 62.5982 19.832V7.82H64.4462V19.634C64.4462 21.878 63.3242 23 61.0802 23H56.3722C54.1282 23 53.0062 21.878 53.0062 19.634ZM68.0647 19.634V11.186C68.0647 8.942 69.1867 7.82 71.4307 7.82H78.0747L79.0647 8.59V9.492H71.4087C70.4114 9.492 69.9127 9.99067 69.9127 10.988V19.832C69.9127 20.8293 70.4114 21.328 71.4087 21.328H77.6567V15.872H73.9167V14.2H79.5047V23H71.4307C69.1867 23 68.0647 21.878 68.0647 19.634ZM82.363 22.23V21.328H89.139C90.1363 21.328 90.635 20.8293 90.635 19.832V18.028C90.635 17.192 90.261 16.7007 89.513 16.554L84.783 15.608C83.1696 15.2853 82.363 14.2 82.363 12.352V11.186C82.363 8.942 83.485 7.82 85.729 7.82H91.053L92.043 8.59V9.492H85.707C84.7096 9.492 84.211 9.99067 84.211 10.988V12.484C84.211 13.32 84.585 13.8113 85.333 13.958L90.063 14.904C91.6763 15.2267 92.483 16.312 92.483 18.16V19.634C92.483 21.878 91.361 23 89.117 23H83.353L82.363 22.23ZM99.6178 9.492V7.82H111.586V9.492H106.526V23H104.678V9.492H99.6178ZM114.089 23V7.82H121.283C123.527 7.82 124.649 8.942 124.649 11.186V13.606C124.649 15.5127 123.835 16.6127 122.207 16.906L125.089 22.56L124.847 23H123.285L120.227 16.972H115.937V23H114.089ZM115.937 15.3H121.305C122.303 15.3 122.801 14.8013 122.801 13.804V10.988C122.801 9.99067 122.303 9.492 121.305 9.492H115.937V15.3ZM126.622 22.604L131.594 7.82H134.63L139.602 22.604L139.338 23H137.82L136.566 19.172H129.658L128.404 23H126.886L126.622 22.604ZM130.208 17.5H136.016L133.376 9.492H132.848L130.208 17.5ZM141.799 19.634V11.186C141.799 8.942 142.921 7.82 145.165 7.82H151.369L152.359 8.59V9.492H145.143C144.146 9.492 143.647 9.99067 143.647 10.988V19.832C143.647 20.8293 144.146 21.328 145.143 21.328H152.359V22.23L151.369 23H145.165C142.921 23 141.799 21.878 141.799 19.634ZM155.447 23V7.82H157.295V15.608L164.269 7.82H165.963L166.161 8.238L160.925 14.068L166.667 22.582L166.469 23H164.775L159.715 15.41L157.295 18.072V23H155.447ZM169.304 23V7.82H179.204V9.492H171.152V14.2H178.544V15.872H171.152V21.328H179.204V23H169.304ZM182.281 23V7.82H189.475C191.719 7.82 192.841 8.942 192.841 11.186V13.606C192.841 15.5127 192.027 16.6127 190.399 16.906L193.281 22.56L193.039 23H191.477L188.419 16.972H184.129V23H182.281ZM184.129 15.3H189.497C190.494 15.3 190.993 14.8013 190.993 13.804V10.988C190.993 9.99067 190.494 9.492 189.497 9.492H184.129V15.3Z" fill="#E0A408" fill-opacity="0.7"/>
</svg>
