<svg width="100" height="100" viewBox="0 0 100 100" fill="none" xmlns="http://www.w3.org/2000/svg">
<path opacity="0.3" d="M62.3333 27.5689C61.6667 21.3033 56.4167 16.4578 50 16.4578C43.5834 16.4578 38.3334 21.3033 37.6667 27.5689C41.5 25.8145 45.6667 24.812 50 24.812C54.3334 24.812 58.5 25.8145 62.3333 27.5689Z" fill="#E0A408"/>
<path opacity="0.3" d="M50 33.1663C36.25 33.1663 25 46.2824 25 62.4061C25 78.5297 36.25 91.6459 50 91.6459C63.75 91.6459 75 78.5297 75 62.4061C75 46.2824 63.75 33.1663 50 33.1663ZM54.1667 79.1145H45.8333V45.6976H54.1667V79.1145Z" fill="#E0A408"/>
<path d="M100 66.5831V58.2289H83C82.6667 55.0543 82.0833 52.0468 81.1667 49.2064L95.4167 40.9357L91.25 33.6675L77.75 41.5205C75.75 38.1788 73.25 35.3383 70.5 32.9156C71.0833 29.6575 71.5833 22.9741 66.5 16.2907L76.8333 5.93149L70.9167 0L60.1667 10.7769C56.75 8.85547 48.9167 5.68087 39.9167 10.7769L29.0833 0.0835401L23.1667 5.93149L33.5 16.2907C28.4167 22.9741 28.9167 29.6575 29.5833 32.9156C26.75 35.3383 24.25 38.1788 22.25 41.5205L8.75 33.751L4.58333 41.0192L18.8333 49.2899C17.9167 52.1303 17.3333 55.1378 17 58.3125H0V66.6667H17C17.3333 69.8413 17.9167 72.8488 18.8333 75.6892L4.58333 83.9599L8.75 91.2281L22.25 83.2916C28.25 93.4002 38.4167 100 50 100C61.5833 100 71.75 93.3166 77.75 83.2916L91.25 91.1445L95.4167 83.8764L81.1667 75.6057C82.0833 72.7652 82.6667 69.7577 83 66.5831H100ZM50 16.4578C56.4167 16.4578 61.6667 21.3033 62.3333 27.5689C58.5 25.8145 54.3333 24.812 50 24.812C45.6667 24.812 41.5 25.8145 37.6667 27.5689C38.3333 21.3033 43.5833 16.4578 50 16.4578ZM50 91.6458C36.25 91.6458 25 78.5297 25 62.406C25 46.2824 36.25 33.1662 50 33.1662C63.75 33.1662 75 46.2824 75 62.406C75 78.5297 63.75 91.6458 50 91.6458Z" fill="#E0A408"/>
<path d="M54.1667 45.6976H45.8334V79.1145H54.1667V45.6976Z" fill="#E0A408"/>
</svg>
